<svg xmlns="http://www.w3.org/2000/svg" xmlns:xlink="http://www.w3.org/1999/xlink" width="196" height="26" viewBox="0 0 196 26"><defs><path id="s61aa" d="M242 75.2v16.26c0 .3-.24.54-.54.54H225.2a.54.54 0 0 1-.54-.54v-1.63h-3.25v.54a.54.54 0 0 1-1.09 0V75.7a4.86 4.86 0 1 1 5.42-4.82c0 2.5-1.9 4.55-4.33 4.82v13.06h3.25V75.2c0-.3.24-.54.54-.54h11.37v-1.63c0-.3.25-.54.54-.54h2.17c.3 0 .54.24.54.54v1.63h1.63c.3 0 .54.24.54.54zm-20.58-6.5c0-.3-.25-.53-.55-.53-1.49 0-2.7 1.21-2.7 2.7a.54.54 0 0 0 1.08 0c0-.9.73-1.62 1.62-1.62.3 0 .55-.24.55-.54zm17.33 9.22h-10.83v10.83h10.83zM229 83.33a4.34 4.34 0 1 1 8.68.01 4.34 4.34 0 0 1-8.68 0zm2.17 0a.54.54 0 0 0 1.08 0c0-.6.49-1.08 1.08-1.08a.54.54 0 0 0 0-1.08c-1.2 0-2.16.97-2.16 2.16z"/></defs><g><g transform="translate(-216 -66)"><g fill="#fff" font-family="'Muli-Black','Muli-Black'" font-size="20" font-style="none" font-weight="400" style="text-transform:uppercase;line-height:32px"><text dominant-baseline="text-before-edge" font-family="Helvetica, Arial, sans-serif" transform="translate(251 76)"><tspan style="font-kerning:normal">P</tspan><tspan style="font-kerning:normal">hotography</tspan></text></g></g><g transform="translate(-216 -66)"><use fill="#fff" xlink:href="#s61aa"/></g></g></svg>